<svg width="current" height="current" viewBox="0 0 341 71" fill="none" xmlns="http://www.w3.org/2000/svg">
<path d="M2.98023e-08 2.4H14.5V56.4H38.5V69H2.98023e-08V2.4ZM48.5352 2.4H89.0352V15H62.8352V28.3H84.5352V40.5H62.8352V56.4H89.0352V69H48.5352V2.4ZM116.739 15H98.5391V2.4H149.339V15H131.339V69H116.739V15ZM156.875 28.4C159.875 24.6 161.908 21.3 162.975 18.5L157.175 9.8C157.175 8.26667 157.575 6.76667 158.375 5.3C159.242 3.76666 160.442 2.53333 161.975 1.6C163.508 0.666664 165.242 0.199998 167.175 0.199998C170.042 0.199998 172.475 1.23333 174.475 3.3C176.475 5.3 177.475 7.86666 177.475 11C177.475 14.6667 176.008 18.8333 173.075 23.5C170.142 28.1667 165.542 32.7 159.275 37.1L156.875 28.4ZM207.541 70.3C203.675 70.3 199.975 69.8667 196.441 69C192.975 68.1333 189.975 66.9667 187.441 65.5L188.641 52.1C191.641 53.9667 194.775 55.4333 198.041 56.5C201.375 57.5 204.441 58 207.241 58C210.441 58 213.041 57.3333 215.041 56C217.041 54.6667 218.041 52.9 218.041 50.7C218.041 48.9 217.375 47.5333 216.041 46.6C214.708 45.6 212.608 44.5333 209.741 43.4L207.341 42.4C207.008 42.2667 206.641 42.1333 206.241 42C205.841 41.8 205.375 41.6 204.841 41.4C201.108 39.8667 198.108 38.4333 195.841 37.1C193.575 35.7 191.608 33.7667 189.941 31.3C188.341 28.8333 187.541 25.6333 187.541 21.7C187.541 15.3 189.708 10.2667 194.041 6.6C198.375 2.93333 204.408 1.1 212.141 1.1C218.008 1.1 224.008 2.3 230.141 4.7L227.941 17.9C225.475 16.5 222.808 15.4 219.941 14.6C217.141 13.8 214.475 13.4 211.941 13.4C208.808 13.4 206.375 14.0333 204.641 15.3C202.908 16.5 202.041 18.1333 202.041 20.2C202.041 22 202.641 23.4 203.841 24.4C205.041 25.4 206.975 26.4667 209.641 27.6L213.741 29.2C217.608 30.6667 220.808 32.1 223.341 33.5C225.875 34.9 228.041 36.9333 229.841 39.6C231.641 42.2 232.541 45.6 232.541 49.8C232.541 56.2667 230.341 61.3 225.941 64.9C221.541 68.5 215.408 70.3 207.541 70.3Z" fill="#1E90FF"/>
<path d="M264.863 2.4H279.363V69H264.863V2.4ZM308.341 15H290.141V2.4H340.941V15H322.941V69H308.341V15Z" fill="#1E5EFF"/>
</svg>
