<svg width="32" height="15" viewBox="0 0 32 15" fill="none" xmlns="http://www.w3.org/2000/svg">
<path fill-rule="evenodd" clip-rule="evenodd" d="M2.0932 2.66569C2.5358 2.4257 2.83634 1.95703 2.83634 1.41817C2.83634 0.634936 2.2014 0 1.41817 0C0.634936 0 0 0.634936 0 1.41817C0 2.03562 0.394596 2.56091 0.94537 2.75562V14.1822H30.2542V2.7556C30.805 2.56089 31.1995 2.03561 31.1995 1.41817C31.1995 0.634936 30.5646 0 29.7814 0C28.9981 0 28.3632 0.634936 28.3632 1.41817C28.3632 1.95707 28.6638 2.42577 29.1064 2.66575L22.9271 6.83769L16.5105 2.50552C16.8208 2.24538 17.0182 1.85482 17.0182 1.41817C17.0182 0.634936 16.3832 0 15.6 0C14.8168 0 14.1818 0.634936 14.1818 1.41817C14.1818 1.85477 14.3791 2.24528 14.6894 2.50543L8.27261 6.83769L2.0932 2.66569Z" fill="#FFD600"/>
</svg>
