<svg width="234" height="169" viewBox="0 0 234 169" fill="none" xmlns="http://www.w3.org/2000/svg">
<path d="M0.478516 2.4H14.9785V56.4H38.9785V69H0.478516V2.4ZM49.0137 2.4H89.5137V15H63.3137V28.3H85.0137V40.5H63.3137V56.4H89.5137V69H49.0137V2.4ZM117.218 15H99.0176V2.4H149.818V15H131.818V69H117.218V15ZM157.354 28.4C160.354 24.6 162.387 21.3 163.454 18.5L157.654 9.8C157.654 8.26667 158.054 6.76667 158.854 5.3C159.72 3.76666 160.92 2.53333 162.454 1.6C163.987 0.666664 165.72 0.199998 167.654 0.199998C170.52 0.199998 172.954 1.23333 174.954 3.3C176.954 5.3 177.954 7.86666 177.954 11C177.954 14.6667 176.487 18.8333 173.554 23.5C170.62 28.1667 166.02 32.7 159.754 37.1L157.354 28.4ZM208.02 70.3C204.153 70.3 200.453 69.8667 196.92 69C193.453 68.1333 190.453 66.9667 187.92 65.5L189.12 52.1C192.12 53.9667 195.253 55.4333 198.52 56.5C201.853 57.5 204.92 58 207.72 58C210.92 58 213.52 57.3333 215.52 56C217.52 54.6667 218.52 52.9 218.52 50.7C218.52 48.9 217.853 47.5333 216.52 46.6C215.187 45.6 213.087 44.5333 210.22 43.4L207.82 42.4C207.487 42.2667 207.12 42.1333 206.72 42C206.32 41.8 205.853 41.6 205.32 41.4C201.587 39.8667 198.587 38.4333 196.32 37.1C194.053 35.7 192.087 33.7667 190.42 31.3C188.82 28.8333 188.02 25.6333 188.02 21.7C188.02 15.3 190.187 10.2667 194.52 6.6C198.853 2.93333 204.887 1.1 212.62 1.1C218.487 1.1 224.487 2.3 230.62 4.7L228.42 17.9C225.953 16.5 223.287 15.4 220.42 14.6C217.62 13.8 214.953 13.4 212.42 13.4C209.287 13.4 206.853 14.0333 205.12 15.3C203.387 16.5 202.52 18.1333 202.52 20.2C202.52 22 203.12 23.4 204.32 24.4C205.52 25.4 207.453 26.4667 210.12 27.6L214.22 29.2C218.087 30.6667 221.287 32.1 223.82 33.5C226.353 34.9 228.52 36.9333 230.32 39.6C232.12 42.2 233.02 45.6 233.02 49.8C233.02 56.2667 230.82 61.3 226.42 64.9C222.02 68.5 215.887 70.3 208.02 70.3Z" fill="#1E90FF"/>
<path d="M79.843 102.4H94.343V169H79.843V102.4ZM123.321 115H105.121V102.4H155.921V115H137.921V169H123.321V115Z" fill="#1E5EFF"/>
</svg>
