<svg width="59" height="59" viewBox="0 0 59 59" fill="none" xmlns="http://www.w3.org/2000/svg">
<g filter="url(#filter0_d_723_766)">
<path fill-rule="evenodd" clip-rule="evenodd" d="M55 0H4V51H9.47506L29 39L48.5249 51H55V0Z" fill="#FFD700"/>
</g>
<path d="M27.51 15.08C27.51 15.72 27.69 16.31 28.05 16.85C28.41 17.39 28.86 17.87 29.4 18.29C29.94 18.71 30.68 19.23 31.62 19.85C32.72 20.57 33.6 21.21 34.26 21.77C34.92 22.31 35.48 22.97 35.94 23.75C36.42 24.51 36.66 25.37 36.66 26.33C36.66 27.39 36.37 28.39 35.79 29.33C35.21 30.25 34.34 31 33.18 31.58C32.02 32.16 30.62 32.45 28.98 32.45C25.46 32.45 22.96 31.05 21.48 28.25L24.87 25.64C25.83 27.62 26.91 29.54 28.11 31.4H28.14C28.72 31.4 29.26 31.25 29.76 30.95C30.26 30.63 30.66 30.22 30.96 29.72C31.26 29.22 31.41 28.69 31.41 28.13C31.41 27.53 31.23 26.98 30.87 26.48C30.53 25.96 30.1 25.51 29.58 25.13C29.06 24.73 28.35 24.25 27.45 23.69C26.37 23.01 25.5 22.41 24.84 21.89C24.18 21.37 23.61 20.74 23.13 20C22.67 19.24 22.44 18.37 22.44 17.39C22.44 16.29 22.75 15.29 23.37 14.39C24.01 13.47 24.91 12.75 26.07 12.23C27.25 11.71 28.63 11.45 30.21 11.45C31.75 11.45 33.01 11.7 33.99 12.2C34.99 12.68 35.89 13.37 36.69 14.27L33.54 17.45C32.48 15.69 31.41 14.04 30.33 12.5C29.43 12.5 28.73 12.75 28.23 13.25C27.75 13.73 27.51 14.34 27.51 15.08Z" fill="white"/>
<rect x="50" width="2" height="51" fill="white"/>
<path d="M29 11H30V33H29V11Z" fill="#FFD700"/>
<rect x="7" width="2" height="51" fill="white"/>
<defs>
<filter id="filter0_d_723_766" x="0" y="0" width="59" height="59" filterUnits="userSpaceOnUse" color-interpolation-filters="sRGB">
<feFlood flood-opacity="0" result="BackgroundImageFix"/>
<feColorMatrix in="SourceAlpha" type="matrix" values="0 0 0 0 0 0 0 0 0 0 0 0 0 0 0 0 0 0 127 0" result="hardAlpha"/>
<feOffset dy="4"/>
<feGaussianBlur stdDeviation="2"/>
<feComposite in2="hardAlpha" operator="out"/>
<feColorMatrix type="matrix" values="0 0 0 0 0 0 0 0 0 0 0 0 0 0 0 0 0 0 0.25 0"/>
<feBlend mode="normal" in2="BackgroundImageFix" result="effect1_dropShadow_723_766"/>
<feBlend mode="normal" in="SourceGraphic" in2="effect1_dropShadow_723_766" result="shape"/>
</filter>
</defs>
</svg>
